# xmcd CD database file
#
# Track frame offsets:
#	150
#	20200
#	44325
#	62538
#
# Disc length: 1098 seconds
#
# Revision: 3
# Processed by: cddbd v1.5.2PL0 Copyright (c) Steve Scherf et al.
# Submitted via: CDex 1.60beta1-cs1
#
DISCID=30044804
DTITLE=いきものがかり - HANABI
DYEAR=2006
DGENRE=Pop
TTITLE0=HANABI
TTITLE1=甘い苦い時間
TTITLE2=木綿のハンカチーフ
TTITLE3=HANABI -instrumental-
EXTD=YEAR: 2006
EXTT0=
EXTT1=
EXTT2=
EXTT3=
PLAYORDER=
